# xmcd
#
# Track frame offsets:
#	150
#	12298
#	25491
#	44039
#	61966
#	76468
#	87833
#	100446
#	117900
#	133746
#	145977
#	165541
#	179930
#	195522
#	211462
#	237224
#	259879
#	277239
#	294498
#	308476
#
# Disc length: 4231 seconds
#
# Revision: 0
# Processed by: cddbd v1.5.2PL0 Copyright (c) Steve Scherf et al.
# Submitted via: EasyCDDAExtractor 16.0.8.2
#
DISCID=32108514
DTITLE=Συλλογικός δίσκος - Σύνοψη ιστορίας ελλην. τραγουδιού 2
DYEAR=1900
DGENRE=Ποικίλη
TTITLE0=Άγνωστος - Σμυρναίΐκος μπάλλος [Σμύρνη]
TTITLE1=Άγνωστος - Έλα να σε φιλήσω [μπάλλος, Σμύρνη]
TTITLE2=Άνευ ερμηνευτού - Σαράντα μήλα [καρλισίδικο ομάλ]
TTITLE3=Άνευ ερμηνευτού - Ταξίμι σε πολίτικη λύρα [χιτζαζκιάρ, Κωνσταν/λη]
TTITLE4=Άγνωστος - Θα πάω κάτ' στην Αραπιά [ζωναράδικος, Αν. Θράκη]
TTITLE5=Άγνωστος - Μιά καλή γειτονοπούλα [μπαϊντούσκα, Αν. Θράκη]
TTITLE6=Σίκκης Χρήστος - ''Φωνή'' Παφίτισσα [Κύπρος]
TTITLE7=Σίκκης Χρήστος - ''Φωνή'' Αβκορίτισσα-Τηλλυκώτισσα [Κύπρος]
TTITLE8=Άγνωστος - Ανάθεμα τον αίτιο [Μυτιλήνη]
TTITLE9=Χορωδία - Σα της Ωριάς το κάστρο [Χίος]
TTITLE10=Άνευ ερμηνευτού - Μοιριολόγι [οργανικό, Ήπειρος]
TTITLE11=Χορωδία - Αλησμονώ και χαίρομαι [πολυφωνικό, Ήπειρος]
TTITLE12=Χορωδία - Πέρα στους πέρα κάμπους [νησιώτικο]
TTITLE13=Άγνωστος - Μέσ' στου Αιγαίου τα νησιά [νησιώτικο]
TTITLE14=Άγνωστος - Οι πρώτες μέρες προσφύγων Καλαμαριά [Ποντιακό]
TTITLE15=Άγνωστος - Χριστέ να σπούσαν οι φυλακές [ριζίτικο και κοντυλιές]
TTITLE16=Άνευ ερμηνευτού - Ταξίμ χιτζαζκιάρ κουρντί [ηχογρ. Αμερικής 1930, Σμύ
TTITLE16=ρνη]
TTITLE17=Παπαγκίκα Μαρίκα - Αϊδίνικος χορός [ηχ/φηση Αμερικής 1928, Σμύρνη]
TTITLE18=Άνευ ερμηνευτού - Χορός με τα κουτάλια [αφ. Γ. Μελίκης, Μ. Ασία]
TTITLE19=Άνευ ερμηνευτού - Παπαθκού (Του παππού) [γκάϊντα]
EXTD=
EXTT0=
EXTT1=
EXTT2=
EXTT3=
EXTT4=
EXTT5=
EXTT6=
EXTT7=
EXTT8=
EXTT9=
EXTT10=
EXTT11=
EXTT12=
EXTT13=
EXTT14=
EXTT15=
EXTT16=
EXTT17=
EXTT18=
EXTT19=
PLAYORDER=
